<svg width="20" height="20" viewBox="0 0 20 20" fill="none" xmlns="http://www.w3.org/2000/svg"><path d="M17.496 10H17.504M2.496 10H2.504M4.162 12.5H4.171M4.162 7.5H4.171M15.829 12.5H15.837M9.996 15H10.004M9.996 5H10.004M6.662 14.167H6.671M6.662 5.833H6.671M13.329 14.167H13.337M13.329 5.833H13.337M15.829 7.5H15.837M8.329 10C8.329 10.442 8.505 10.866 8.817 11.178C9.13 11.491 9.554 11.667 9.996 11.667C10.438 11.667 10.862 11.491 11.174 11.178C11.487 10.866 11.662 10.442 11.662 10C11.662 9.558 11.487 9.134 11.174 8.821C10.862 8.509 10.438 8.333 9.996 8.333C9.554 8.333 9.13 8.509 8.817 8.821C8.505 9.134 8.329 9.558 8.329 10Z" stroke="currentColor" stroke-width="1.667" stroke-linecap="round" stroke-linejoin="round"/></svg>
