<svg width="20" height="20" viewBox="0 0 20 20" fill="none" xmlns="http://www.w3.org/2000/svg"><path d="M16.44 9.91L10.517 7.115C10.359 7.04 10.181 7 10 7C9.819 7 9.641 7.04 9.483 7.115L3.56 9.911C3.391 9.991 3.25 10.109 3.151 10.252C3.053 10.395 3 10.558 3 10.724V16.276C3 16.442 3.053 16.605 3.151 16.748C3.25 16.891 3.391 17.009 3.56 17.089L9.483 19.885C9.641 19.96 9.819 20 10 20C10.181 20 10.359 19.96 10.517 19.885L16.44 17.089C16.609 17.009 16.75 16.891 16.849 16.748C16.947 16.605 17 16.442 17 16.276V10.725C17 10.558 17 10.25 17 10.25C16.901 10.107 16.61 9.99 16.44 9.91ZM10 7.928L15.408 10.482L10 13.036L4.593 10.482L10 7.928ZM4.077 11.295L9.462 13.836V18.816L4.077 16.277V11.295ZM10.539 18.816V13.838L15.923 11.295V16.274L10.539 18.816Z" fill="currentColor"/><path d="M16.442 3.91L10.538 1.115C10.38 1.04 10.203 1 10.023 1C9.842 1 9.665 1.04 9.507 1.115L3.603 3.911C3.435 3.991 3.294 4.109 3.196 4.252C3.097 4.395 3.045 4.558 3.045 4.724L3 10.277C3.001 10.443 3.004 11 2.996 11C2.991 11 3.435 11.009 3.603 11.089L9.507 13.885C9.665 13.96 9.842 14 10.023 14C10.203 14 10.38 13.96 10.538 13.885L16.442 11.089C16.61 11.009 16.751 10.891 16.849 10.748C16.948 10.605 17 10.442 17 10.276V4.725C17 4.558 16.948 4.394 16.85 4.251C16.752 4.108 16.611 3.99 16.442 3.91ZM10.023 1.928L15.413 4.482L10.023 7.036L4.632 4.482L10.023 1.928ZM4.118 5.295L9.486 7.836V12.816L4.118 10.277V5.295ZM10.559 12.816V7.838L15.927 5.295V10.274L10.559 12.816Z" fill="currentColor"/></svg>
