<svg width="20" height="20" viewBox="0 0 20 20" fill="none" xmlns="http://www.w3.org/2000/svg"><path d="M2.5 8.333C2.5 9.099 2.651 9.858 2.944 10.566C3.237 11.273 3.667 11.916 4.209 12.458C4.75 13 5.393 13.43 6.101 13.723C6.809 14.016 7.567 14.167 8.333 14.167C9.099 14.167 9.858 14.016 10.566 13.723C11.273 13.43 11.916 13 12.458 12.458C13 11.916 13.43 11.273 13.723 10.566C14.016 9.858 14.167 9.099 14.167 8.333C14.167 7.567 14.016 6.809 13.723 6.101C13.43 5.393 13 4.75 12.458 4.209C11.916 3.667 11.273 3.237 10.566 2.944C9.858 2.651 9.099 2.5 8.333 2.5C7.567 2.5 6.809 2.651 6.101 2.944C5.393 3.237 4.75 3.667 4.209 4.209C3.667 4.75 3.237 5.393 2.944 6.101C2.651 6.809 2.5 7.567 2.5 8.333Z" stroke="currentColor" stroke-width="1.667" stroke-linecap="round" stroke-linejoin="round"/><path d="M17.5 17.5L12.5 12.5" stroke="currentColor" stroke-width="1.667" stroke-linecap="round" stroke-linejoin="round"/></svg>
